<?xml version="1.0" encoding="UTF-8"?>
<!-- Generator: visioncortex VTracer 0.6.3 -->
<svg version="1.1" xmlns="http://www.w3.org/2000/svg" width="2400" height="2400">
<path d="M0 0 C792 0 1584 0 2400 0 C2400 792 2400 1584 2400 2400 C1608 2400 816 2400 0 2400 C0 1608 0 816 0 0 Z " fill="#055DF5" transform="translate(0,0)"/>
<path d="M0 0 C1.92 0 1.92 0 3.88 0 C4.6 -0 5.31 -0 6.05 -0 C8.47 -0.01 10.89 -0 13.31 0 C15.05 0 16.79 0 18.54 0 C23.34 -0 28.15 0 32.96 0.01 C38.14 0.01 43.32 0.01 48.49 0.01 C57.47 0.01 66.45 0.01 75.43 0.02 C88.41 0.03 101.39 0.03 114.37 0.03 C135.43 0.03 156.49 0.04 177.54 0.05 C198 0.06 218.47 0.07 238.93 0.07 C240.82 0.07 240.82 0.07 242.75 0.07 C249.07 0.07 255.39 0.07 261.71 0.07 C314.2 0.08 366.68 0.1 419.17 0.12 C417.73 3.81 416.11 7.22 414.19 10.67 C413.29 12.29 413.29 12.29 412.37 13.94 C411.72 15.11 411.07 16.27 410.42 17.44 C409.92 18.33 409.92 18.33 409.41 19.24 C404.16 28.68 398.77 38.03 393.3 47.35 C388.85 54.93 384.51 62.56 380.2 70.21 C375.95 77.76 371.66 85.29 367.36 92.81 C367.02 93.4 366.69 93.98 366.34 94.59 C364.98 96.97 363.62 99.35 362.25 101.74 C359.87 105.89 357.5 110.05 355.12 114.21 C348.05 126.61 340.95 138.98 333.81 151.34 C329.24 159.25 324.7 167.18 320.17 175.12 C315.03 184.14 309.86 193.14 304.67 202.12 C299.47 211.14 294.27 220.15 289.11 229.19 C288.77 229.77 288.44 230.36 288.09 230.96 C283.36 239.24 278.69 247.55 274.04 255.87 C268.99 264.95 263.81 273.94 258.56 282.9 C254.09 290.53 249.68 298.19 245.29 305.87 C244.96 306.46 244.63 307.04 244.29 307.64 C242.59 310.61 240.9 313.58 239.21 316.55 C235.84 322.45 232.48 328.35 229.11 334.25 C228.61 335.12 228.61 335.12 228.1 336.01 C223.31 344.39 218.5 352.76 213.67 361.12 C208.47 370.14 203.27 379.15 198.11 388.19 C197.61 389.06 197.61 389.06 197.09 389.96 C192.36 398.24 187.69 406.55 183.04 414.87 C177.99 423.95 172.81 432.94 167.56 441.9 C163.09 449.53 158.68 457.19 154.29 464.87 C153.96 465.46 153.63 466.04 153.29 466.64 C151.59 469.61 149.9 472.58 148.21 475.55 C144.84 481.45 141.48 487.35 138.11 493.25 C137.61 494.12 137.61 494.12 137.1 495.01 C132.31 503.39 127.5 511.76 122.67 520.12 C117.47 529.14 112.27 538.15 107.11 547.19 C106.61 548.06 106.61 548.06 106.09 548.96 C101.36 557.24 96.69 565.55 92.04 573.87 C86.99 582.95 81.81 591.94 76.56 600.9 C72.09 608.53 67.68 616.19 63.29 623.87 C62.96 624.46 62.63 625.04 62.29 625.64 C60.59 628.61 58.9 631.58 57.21 634.55 C53.84 640.45 50.48 646.35 47.11 652.25 C46.78 652.83 46.44 653.41 46.1 654.01 C41.31 662.39 36.5 670.76 31.67 679.12 C26.47 688.14 21.27 697.15 16.11 706.19 C15.61 707.06 15.61 707.06 15.09 707.96 C10.36 716.24 5.69 724.55 1.04 732.87 C-4.01 741.95 -9.19 750.94 -14.44 759.9 C-18.91 767.53 -23.32 775.19 -27.71 782.87 C-28.04 783.46 -28.37 784.04 -28.71 784.64 C-30.41 787.61 -32.1 790.58 -33.79 793.55 C-37.16 799.45 -40.52 805.35 -43.89 811.25 C-44.22 811.83 -44.56 812.41 -44.9 813.01 C-49.69 821.39 -54.5 829.76 -59.33 838.12 C-64.53 847.14 -69.73 856.15 -74.89 865.19 C-75.39 866.06 -75.39 866.06 -75.91 866.96 C-80.64 875.24 -85.31 883.55 -89.96 891.87 C-95.01 900.95 -100.19 909.94 -105.44 918.9 C-109.91 926.53 -114.32 934.19 -118.71 941.87 C-119.04 942.46 -119.37 943.04 -119.71 943.64 C-121.4 946.6 -123.09 949.56 -124.78 952.52 C-128.23 958.58 -131.68 964.63 -135.14 970.69 C-135.48 971.27 -135.81 971.85 -136.15 972.45 C-142 982.7 -147.9 992.92 -153.83 1003.12 C-81.37 996.19 -13.25 965.4 40.17 916.12 C41.11 915.29 42.05 914.45 43.02 913.59 C50.56 906.85 57.47 899.69 64.17 892.12 C64.86 891.36 64.86 891.36 65.56 890.57 C110.62 839.78 136.69 774.99 145.36 708.19 C145.52 706.93 145.69 705.67 145.86 704.37 C147.28 692.89 147.64 681.79 148.17 670.12 C257.73 670.12 367.29 670.12 480.17 670.12 C480.17 688.5 480.13 706 478.43 724.15 C478.19 726.93 477.99 729.7 477.8 732.48 C474.74 776.74 465.69 821.93 452.17 864.12 C451.97 864.74 451.78 865.36 451.57 865.99 C441.88 896.21 431.17 925.7 417.48 954.37 C416.32 956.8 415.2 959.25 414.1 961.71 C409.05 972.88 403.06 983.45 396.93 994.05 C395.19 997.09 393.48 1000.15 391.77 1003.21 C377.72 1028.28 361.69 1052.35 344.17 1075.12 C343.69 1075.76 343.2 1076.39 342.7 1077.04 C336.93 1084.56 330.93 1091.86 324.77 1099.06 C322.44 1101.78 320.21 1104.57 317.98 1107.37 C310.39 1116.72 301.93 1125.42 293.38 1133.9 C291.09 1136.18 288.92 1138.5 286.86 1141 C283.46 1144.95 279.69 1148.33 275.78 1151.76 C273.11 1154.18 270.57 1156.69 268.04 1159.25 C263.91 1163.42 259.64 1167.32 255.17 1171.12 C254.15 1172 253.14 1172.88 252.12 1173.76 C228.42 1194.29 203.45 1213.03 177.17 1230.12 C176.47 1230.58 175.76 1231.04 175.04 1231.51 C155.67 1244.09 135.5 1255.19 114.94 1265.7 C112.32 1267.05 109.71 1268.42 107.1 1269.79 C80.4 1283.7 52.1 1294.28 23.63 1303.94 C20.82 1304.9 18.03 1305.88 15.24 1306.88 C-6.99 1314.77 -30.38 1320.26 -53.55 1324.51 C-57.15 1325.18 -60.74 1325.9 -64.32 1326.62 C-88.85 1331.49 -113.44 1334.75 -138.39 1336.37 C-139.57 1336.45 -140.75 1336.53 -141.96 1336.62 C-156.93 1337.47 -171.79 1337.12 -186.83 1337.12 C-187.16 1246.37 -187.49 1155.62 -187.83 1062.12 C-191.79 1069.38 -195.75 1076.64 -199.83 1084.12 C-202.06 1088.02 -204.29 1091.89 -206.58 1095.75 C-211.68 1104.42 -216.72 1113.13 -221.71 1121.87 C-222.04 1122.46 -222.37 1123.04 -222.71 1123.64 C-224.41 1126.61 -226.1 1129.58 -227.79 1132.55 C-230.82 1137.87 -233.86 1143.18 -236.89 1148.49 C-237.56 1149.66 -238.23 1150.83 -238.89 1152 C-243.72 1160.46 -248.58 1168.89 -253.46 1177.31 C-258.94 1186.78 -264.31 1196.31 -269.63 1205.87 C-274.17 1214.01 -278.85 1222.06 -283.57 1230.09 C-287.83 1237.36 -291.98 1244.7 -296.08 1252.06 C-300.26 1259.56 -304.49 1267.02 -308.87 1274.4 C-312.83 1281.08 -316.67 1287.82 -320.52 1294.56 C-325.75 1303.74 -330.99 1312.92 -336.27 1322.07 C-337.25 1323.79 -338.24 1325.5 -339.22 1327.21 C-340.11 1328.75 -340.11 1328.75 -341.01 1330.32 C-341.54 1331.23 -342.06 1332.14 -342.59 1333.07 C-343.83 1335.12 -343.83 1335.12 -344.83 1336.12 C-347.07 1336.22 -349.31 1336.25 -351.54 1336.25 C-352.26 1336.25 -352.97 1336.25 -353.71 1336.25 C-356.13 1336.25 -358.55 1336.25 -360.97 1336.24 C-362.71 1336.24 -364.45 1336.25 -366.2 1336.25 C-371 1336.25 -375.81 1336.25 -380.62 1336.24 C-385.8 1336.24 -390.98 1336.24 -396.16 1336.24 C-405.13 1336.24 -414.11 1336.24 -423.09 1336.23 C-436.07 1336.22 -449.05 1336.22 -462.03 1336.22 C-483.09 1336.22 -504.15 1336.21 -525.2 1336.2 C-545.66 1336.19 -566.13 1336.18 -586.59 1336.18 C-587.85 1336.18 -589.11 1336.18 -590.41 1336.18 C-596.73 1336.18 -603.05 1336.18 -609.37 1336.17 C-661.86 1336.16 -714.34 1336.15 -766.83 1336.12 C-765.55 1332.17 -764.2 1328.74 -762.06 1325.17 C-761.51 1324.23 -760.96 1323.3 -760.39 1322.34 C-759.79 1321.34 -759.19 1320.34 -758.58 1319.31 C-753.55 1310.81 -748.63 1302.26 -743.83 1293.62 C-738.69 1284.39 -733.43 1275.25 -728.08 1266.14 C-723.91 1259.02 -719.85 1251.84 -715.83 1244.62 C-710.73 1235.47 -705.52 1226.39 -700.22 1217.35 C-695.75 1209.72 -691.34 1202.05 -686.96 1194.37 C-686.62 1193.79 -686.29 1193.21 -685.94 1192.6 C-684.25 1189.63 -682.56 1186.66 -680.86 1183.69 C-677.86 1178.41 -674.84 1173.14 -671.83 1167.87 C-670.16 1164.96 -668.5 1162.04 -666.83 1159.12 C-666.16 1157.96 -665.5 1156.79 -664.83 1155.62 C-664.5 1155.05 -664.17 1154.47 -663.83 1153.87 C-644.83 1120.62 -644.83 1120.62 -643.83 1118.87 C-643.16 1117.71 -642.5 1116.54 -641.83 1115.37 C-640.16 1112.46 -638.5 1109.54 -636.83 1106.63 C-633.82 1101.36 -630.81 1096.09 -627.8 1090.82 C-620.39 1077.83 -612.95 1064.86 -605.47 1051.91 C-598.89 1040.51 -592.37 1029.09 -585.85 1017.66 C-582.84 1012.39 -579.84 1007.13 -576.83 1001.87 C-575.16 998.96 -573.5 996.04 -571.83 993.12 C-571.16 991.96 -570.5 990.79 -569.83 989.62 C-569.5 989.05 -569.17 988.47 -568.83 987.87 C-549.83 954.62 -549.83 954.62 -548.83 952.87 C-548.16 951.71 -547.5 950.54 -546.83 949.37 C-545.16 946.46 -543.5 943.54 -541.83 940.63 C-538.82 935.36 -535.81 930.09 -532.8 924.82 C-525.39 911.83 -517.95 898.86 -510.47 885.91 C-503.89 874.51 -497.37 863.09 -490.85 851.66 C-487.84 846.39 -484.84 841.13 -481.83 835.87 C-480.16 832.96 -478.5 830.04 -476.83 827.12 C-476.16 825.96 -475.5 824.79 -474.83 823.62 C-474.5 823.05 -474.17 822.47 -473.83 821.87 C-454.83 788.62 -454.83 788.62 -453.83 786.87 C-453.16 785.71 -452.5 784.54 -451.83 783.37 C-450.16 780.46 -448.5 777.54 -446.83 774.63 C-443.82 769.36 -440.81 764.09 -437.8 758.82 C-430.39 745.83 -422.95 732.86 -415.47 719.91 C-408.89 708.51 -402.37 697.09 -395.85 685.66 C-392.84 680.39 -389.84 675.13 -386.83 669.87 C-385.16 666.96 -383.5 664.04 -381.83 661.12 C-381.16 659.96 -380.5 658.79 -379.83 657.62 C-379.5 657.05 -379.17 656.47 -378.83 655.87 C-359.83 622.62 -359.83 622.62 -358.83 620.87 C-358.16 619.71 -357.5 618.54 -356.83 617.37 C-355.16 614.46 -353.5 611.54 -351.83 608.63 C-348.82 603.36 -345.81 598.09 -342.8 592.82 C-335.39 579.83 -327.95 566.86 -320.47 553.91 C-313.89 542.51 -307.37 531.09 -300.85 519.66 C-297.84 514.39 -294.84 509.13 -291.83 503.87 C-290.16 500.96 -288.5 498.04 -286.83 495.12 C-286.16 493.96 -285.5 492.79 -284.83 491.62 C-284.5 491.05 -284.17 490.47 -283.83 489.87 C-264.83 456.62 -264.83 456.62 -263.83 454.87 C-263.16 453.71 -262.5 452.54 -261.83 451.37 C-260.16 448.46 -258.5 445.55 -256.83 442.63 C-253.81 437.35 -250.79 432.06 -247.78 426.77 C-246.09 423.81 -244.4 420.84 -242.71 417.87 C-242.37 417.29 -242.04 416.71 -241.7 416.11 C-237.08 408.02 -232.41 399.97 -227.71 391.94 C-222.38 382.85 -217.2 373.68 -212.08 364.48 C-207.52 356.3 -202.82 348.22 -198.08 340.14 C-193.91 333.02 -189.85 325.84 -185.83 318.62 C-180.69 309.39 -175.43 300.25 -170.08 291.14 C-165.91 284.02 -161.85 276.84 -157.83 269.62 C-152.73 260.47 -147.52 251.39 -142.22 242.35 C-137.75 234.72 -133.34 227.05 -128.96 219.37 C-128.62 218.79 -128.29 218.21 -127.94 217.6 C-126.25 214.63 -124.56 211.66 -122.86 208.69 C-119.86 203.41 -116.84 198.14 -113.83 192.87 C-112.16 189.96 -110.5 187.04 -108.83 184.12 C-108.16 182.96 -107.5 181.79 -106.83 180.62 C-106.5 180.05 -106.17 179.47 -105.83 178.87 C-86.83 145.62 -86.83 145.62 -85.83 143.87 C-85.16 142.71 -84.5 141.54 -83.83 140.37 C-82.16 137.46 -80.5 134.54 -78.83 131.63 C-75.82 126.36 -72.81 121.09 -69.8 115.82 C-62.39 102.83 -54.95 89.86 -47.47 76.91 C-42.93 69.03 -38.4 61.15 -33.89 53.25 C-33.56 52.67 -33.24 52.1 -32.9 51.51 C-29.45 45.47 -26.01 39.44 -22.57 33.4 C-21.13 30.88 -19.69 28.35 -18.24 25.82 C-17.24 24.06 -16.24 22.3 -15.23 20.53 C-3.61 0.16 -3.61 0.16 0 0 Z " fill="#FEFEFE" transform="translate(1269.8300748467445,530.8758015036583)"/>
<path d="M0 0 C3.3 0 6.6 0 10 0 C14.25 9 18.16 18.08 21.88 27.31 C22.38 28.55 22.88 29.8 23.38 31.04 C24.59 34.02 25.8 37.01 27 40 C31.09 31.36 34.83 22.66 38.31 13.75 C39.18 11.54 40.05 9.32 40.93 7.11 C41.49 5.67 41.49 5.67 42.06 4.2 C43 2 43 2 44 1 C47.3 1 50.6 1 54 1 C54 17.83 54 34.66 54 52 C51.69 52 49.38 52 47 52 C46.67 40.12 46.34 28.24 46 16 C38.58 33.82 38.58 33.82 31 52 C28.69 52 26.38 52 24 52 C18.49 40.54 13.77 28.79 9 17 C8.67 28.55 8.34 40.1 8 52 C5.36 52 2.72 52 0 52 C0 34.84 0 17.68 0 0 Z " fill="#F2F7FE" transform="translate(1696,1038)"/>
<path d="M0 0 C13.86 0 27.72 0 42 0 C42 1.98 42 3.96 42 6 C41.67 6.33 41.34 6.66 41 7 C35.72 7 30.44 7 25 7 C25 21.52 25 36.04 25 51 C22.36 51 19.72 51 17 51 C17 36.15 17 21.3 17 6 C11.39 6 5.78 6 0 6 C0 4.02 0 2.04 0 0 Z " fill="#F6F9FE" transform="translate(1648,1039)"/>
</svg>
